HIERARCHY
ROOT Hips
{
	OFFSET 0.000000 83.214638 0.000000
	CHANNELS 6 Xposition Yposition Zposition Xrotation Yrotation Zrotation
	JOINT Pelvis
	{
		OFFSET 0.000000 0.000000 0.000000
		CHANNELS 3 Xrotation Yrotation Zrotation
		JOINT LeftUpLeg
		{
			OFFSET 8.479700 -4.795502 -0.379100
			CHANNELS 3 Xrotation Yrotation Zrotation
			JOINT LeftLeg
			{
				OFFSET 0.024144 -32.555107 0.112900
				CHANNELS 3 Xrotation Yrotation Zrotation
				JOINT LeftFoot
				{
					OFFSET -0.024144 -32.638630 -3.012600
					CHANNELS 3 Xrotation Yrotation Zrotation
					JOINT LeftToeBase
					{
						OFFSET 0.970200 -13.225400 11.864200
						CHANNELS 3 Xrotation Yrotation Zrotation
						End Site
						{
							OFFSET 0.000000 12.319262 0.000000
						}
					}
					JOINT LFootTongue
					{
						OFFSET 1.142400 -1.059800 6.665200
						CHANNELS 3 Xrotation Yrotation Zrotation
						End Site
						{
							OFFSET 0.000000 12.319262 0.000000
						}
					}
				}
				JOINT LeftPantLeg
				{
					OFFSET 0.918482 -16.533964 -2.284700
					CHANNELS 3 Xrotation Yrotation Zrotation
					End Site
					{
						OFFSET 0.350399 24.744368 0.000000
					}
				}
			}
		}
		JOINT RightUpLeg
		{
			OFFSET -8.479700 -4.795502 -0.379100
			CHANNELS 3 Xrotation Yrotation Zrotation
			JOINT RightLeg
			{
				OFFSET -0.023144 -32.555092 0.112900
				CHANNELS 3 Xrotation Yrotation Zrotation
				JOINT RightFoot
				{
					OFFSET 0.023144 -32.638641 -3.012700
					CHANNELS 3 Xrotation Yrotation Zrotation
					JOINT RightToeBase
					{
						OFFSET -0.970200 -13.225400 11.864200
						CHANNELS 3 Xrotation Yrotation Zrotation
						End Site
						{
							OFFSET 0.000000 12.319244 0.000000
						}
					}
					JOINT RFootTongue
					{
						OFFSET -1.142200 -1.059800 6.665200
						CHANNELS 3 Xrotation Yrotation Zrotation
						End Site
						{
							OFFSET 0.000000 12.319243 0.000000
						}
					}
				}
				JOINT RightPantLeg
				{
					OFFSET -0.919482 -16.533978 -2.284800
					CHANNELS 3 Xrotation Yrotation Zrotation
					End Site
					{
						OFFSET -0.350400 24.744419 0.000000
					}
				}
			}
		}
	}
	JOINT Spine
	{
		OFFSET 0.000000 7.722000 1.166200
		CHANNELS 3 Xrotation Yrotation Zrotation
		JOINT Spine1
		{
			OFFSET 0.000000 12.024101 0.248800
			CHANNELS 3 Xrotation Yrotation Zrotation
			JOINT Spine2
			{
				OFFSET 0.000000 11.502998 -0.491200
				CHANNELS 3 Xrotation Yrotation Zrotation
				JOINT Neck
				{
					OFFSET 0.000000 18.430702 -3.123100
					CHANNELS 3 Xrotation Yrotation Zrotation
					JOINT Head
					{
						OFFSET 0.000000 9.051102 1.034000
						CHANNELS 3 Xrotation Yrotation Zrotation
						JOINT HairB
						{
							OFFSET 0.208400 24.786102 24.822300
							CHANNELS 3 Xrotation Yrotation Zrotation
							End Site
							{
								OFFSET 0.000000 32.263779 0.000000
							}
						}
						JOINT HairA
						{
							OFFSET -7.081100 24.428299 23.196600
							CHANNELS 3 Xrotation Yrotation Zrotation
							End Site
							{
								OFFSET 0.000000 32.263779 0.000000
							}
						}
						JOINT Hat
						{
							OFFSET 16.728800 15.048294 -15.439601
							CHANNELS 3 Xrotation Yrotation Zrotation
							End Site
							{
								OFFSET 0.000000 32.263779 0.000000
							}
						}
					}
				}
				JOINT LeftShoulder
				{
					OFFSET 6.197800 13.665199 -4.064700
					CHANNELS 3 Xrotation Yrotation Zrotation
					JOINT LeftArm
					{
						OFFSET 7.778100 -0.187103 -1.709300
						CHANNELS 3 Xrotation Yrotation Zrotation
						JOINT LeftForeArm
						{
							OFFSET 22.049376 0.000000 0.000000
							CHANNELS 3 Xrotation Yrotation Zrotation
							JOINT LeftHand
							{
								OFFSET 23.009392 0.000000 0.000000
								CHANNELS 3 Xrotation Yrotation Zrotation
								JOINT LeftHandThumb1
								{
									OFFSET 3.507191 -2.063065 3.133727
									CHANNELS 3 Xrotation Yrotation Zrotation
									JOINT LeftHandThumb2
									{
										OFFSET 3.101337 -1.790558 1.790558
										CHANNELS 3 Xrotation Yrotation Zrotation
										JOINT LeftHandThumb3
										{
											OFFSET 3.058640 -1.765907 1.765906
											CHANNELS 3 Xrotation Yrotation Zrotation
											End Site
											{
												OFFSET -0.415260 3.926476 -0.049563
											}
										}
									}
								}
								JOINT LeftHandIndex1
								{
									OFFSET 11.334419 -0.901459 3.706815
									CHANNELS 3 Xrotation Yrotation Zrotation
									JOINT LeftHandIndex2
									{
										OFFSET 3.283112 0.000000 0.000000
										CHANNELS 3 Xrotation Yrotation Zrotation
										JOINT LeftHandIndex3
										{
											OFFSET 3.323853 0.000000 0.000000
											CHANNELS 3 Xrotation Yrotation Zrotation
											End Site
											{
												OFFSET -1.135597 3.097809 0.402452
											}
										}
									}
								}
								JOINT LeftHandMiddle1
								{
									OFFSET 11.335861 0.000000 0.000000
									CHANNELS 3 Xrotation Yrotation Zrotation
									JOINT LeftHandMiddle2
									{
										OFFSET 3.410492 0.000000 0.000000
										CHANNELS 3 Xrotation Yrotation Zrotation
										JOINT LeftHandMiddle3
										{
											OFFSET 3.312172 0.000000 0.000000
											CHANNELS 3 Xrotation Yrotation Zrotation
											End Site
											{
												OFFSET -1.150200 3.080154 0.400270
											}
										}
									}
								}
								JOINT LeftHandRing1
								{
									OFFSET 11.514786 -0.013176 -3.003090
									CHANNELS 3 Xrotation Yrotation Zrotation
									JOINT LeftHandRing2
									{
										OFFSET 3.053307 0.000000 0.000000
										CHANNELS 3 Xrotation Yrotation Zrotation
										JOINT LeftHandRing3
										{
											OFFSET 3.295807 0.000000 0.000000
											CHANNELS 3 Xrotation Yrotation Zrotation
											End Site
											{
												OFFSET -1.281006 3.013344 0.375733
											}
										}
									}
								}
								JOINT LeftHandPinky1
								{
									OFFSET 10.518692 -0.960396 -5.730441
									CHANNELS 3 Xrotation Yrotation Zrotation
									JOINT LeftHandPinky2
									{
										OFFSET 2.861649 0.000000 0.000000
										CHANNELS 3 Xrotation Yrotation Zrotation
										JOINT LeftHandPinky3
										{
											OFFSET 2.863380 0.000000 0.000000
											CHANNELS 3 Xrotation Yrotation Zrotation
											End Site
											{
												OFFSET -0.843597 2.711159 0.369971
											}
										}
									}
								}
							}
							JOINT LSleeve
							{
								OFFSET 6.676277 -0.344902 -1.011730
								CHANNELS 3 Xrotation Yrotation Zrotation
								End Site
								{
									OFFSET 0.000000 14.885353 0.000000
								}
							}
						}
					}
				}
				JOINT RightShoulder
				{
					OFFSET -6.197800 13.665199 -4.064700
					CHANNELS 3 Xrotation Yrotation Zrotation
					JOINT RightArm
					{
						OFFSET -7.778100 -0.187103 -1.709300
						CHANNELS 3 Xrotation Yrotation Zrotation
						JOINT RightForeArm
						{
							OFFSET -22.049376 0.000000 0.000000
							CHANNELS 3 Xrotation Yrotation Zrotation
							JOINT RightHand
							{
								OFFSET -23.009392 0.000000 0.000000
								CHANNELS 3 Xrotation Yrotation Zrotation
								JOINT RightHandThumb1
								{
									OFFSET -3.507191 -2.063065 3.133727
									CHANNELS 3 Xrotation Yrotation Zrotation
									JOINT RightHandThumb2
									{
										OFFSET -3.101337 -1.790558 1.790558
										CHANNELS 3 Xrotation Yrotation Zrotation
										JOINT RightHandThumb3
										{
											OFFSET -3.058640 -1.765907 1.765906
											CHANNELS 3 Xrotation Yrotation Zrotation
											End Site
											{
												OFFSET 0.415260 3.926476 -0.049563
											}
										}
									}
								}
								JOINT RightHandIndex1
								{
									OFFSET -11.334419 -0.901459 3.706815
									CHANNELS 3 Xrotation Yrotation Zrotation
									JOINT RightHandIndex2
									{
										OFFSET -3.283112 0.000000 0.000000
										CHANNELS 3 Xrotation Yrotation Zrotation
										JOINT RightHandIndex3
										{
											OFFSET -3.323853 0.000000 0.000000
											CHANNELS 3 Xrotation Yrotation Zrotation
											End Site
											{
												OFFSET 1.135597 3.097809 0.402452
											}
										}
									}
								}
								JOINT RightHandMiddle1
								{
									OFFSET -11.335861 0.000000 0.000000
									CHANNELS 3 Xrotation Yrotation Zrotation
									JOINT RightHandMiddle2
									{
										OFFSET -3.410492 0.000000 0.000000
										CHANNELS 3 Xrotation Yrotation Zrotation
										JOINT RightHandMiddle3
										{
											OFFSET -3.312172 0.000000 0.000000
											CHANNELS 3 Xrotation Yrotation Zrotation
											End Site
											{
												OFFSET 1.150200 3.080154 0.400270
											}
										}
									}
								}
								JOINT RightHandRing1
								{
									OFFSET -11.514786 -0.013176 -3.003090
									CHANNELS 3 Xrotation Yrotation Zrotation
									JOINT RightHandRing2
									{
										OFFSET -3.053307 0.000000 0.000000
										CHANNELS 3 Xrotation Yrotation Zrotation
										JOINT RightHandRing3
										{
											OFFSET -3.295807 0.000000 0.000000
											CHANNELS 3 Xrotation Yrotation Zrotation
											End Site
											{
												OFFSET 1.281006 3.013344 0.375733
											}
										}
									}
								}
								JOINT RightHandPinky1
								{
									OFFSET -10.518692 -0.960396 -5.730441
									CHANNELS 3 Xrotation Yrotation Zrotation
									JOINT RightHandPinky2
									{
										OFFSET -2.861649 0.000000 0.000000
										CHANNELS 3 Xrotation Yrotation Zrotation
										JOINT RightHandPinky3
										{
											OFFSET -2.863380 0.000000 0.000000
											CHANNELS 3 Xrotation Yrotation Zrotation
											End Site
											{
												OFFSET 0.843597 2.711159 0.369971
											}
										}
									}
								}
							}
							JOINT RSleeve
							{
								OFFSET -6.676277 -0.344902 -1.011730
								CHANNELS 3 Xrotation Yrotation Zrotation
								End Site
								{
									OFFSET 0.000000 14.885353 0.000000
								}
							}
						}
					}
				}
				JOINT Backpack
				{
					OFFSET 0.000000 -2.471497 36.677502
					CHANNELS 3 Xrotation Yrotation Zrotation
					End Site
					{
						OFFSET 0.000000 20.427315 0.000000
					}
				}
				JOINT Hood
				{
					OFFSET 0.000000 18.754097 -10.431000
					CHANNELS 3 Xrotation Yrotation Zrotation
					JOINT Hood1
					{
						OFFSET 0.000000 -5.011002 -7.685901
						CHANNELS 3 Xrotation Yrotation Zrotation
						End Site
						{
							OFFSET 0.000000 9.175140 0.000000
						}
					}
				}
				JOINT LHoodieString
				{
					OFFSET 5.250500 16.397697 3.089900
					CHANNELS 3 Xrotation Yrotation Zrotation
					JOINT LHoodieString1
					{
						OFFSET 0.257700 -6.364304 3.694600
						CHANNELS 3 Xrotation Yrotation Zrotation
						JOINT LHoodieString2
						{
							OFFSET 0.000000 -9.643799 2.679100
							CHANNELS 3 Xrotation Yrotation Zrotation
							End Site
							{
								OFFSET 0.000000 10.009018 0.000000
							}
						}
					}
				}
				JOINT RHoodieString
				{
					OFFSET -5.250500 16.397697 3.089900
					CHANNELS 3 Xrotation Yrotation Zrotation
					JOINT RHoodieString1
					{
						OFFSET -0.257700 -6.364304 3.694600
						CHANNELS 3 Xrotation Yrotation Zrotation
						JOINT RHoodieString2
						{
							OFFSET 0.000000 -9.643799 2.679100
							CHANNELS 3 Xrotation Yrotation Zrotation
							End Site
							{
								OFFSET 0.000000 10.009018 0.000000
							}
						}
					}
				}
			}
			JOINT LBackpack_Strap
			{
				OFFSET 15.223200 -7.719803 -6.610900
				CHANNELS 3 Xrotation Yrotation Zrotation
				End Site
				{
					OFFSET 0.000000 16.040596 0.000000
				}
			}
			JOINT RBackpack_Strap
			{
				OFFSET -15.223000 -7.719803 -6.610900
				CHANNELS 3 Xrotation Yrotation Zrotation
				End Site
				{
					OFFSET 0.000000 16.040596 0.000000
				}
			}
		}
	}
	JOINT BoyFacialAnim_Joint
	{
		OFFSET 1.000000 -82.208099 -1.550900
		CHANNELS 3 Xrotation Yrotation Zrotation
		End Site
		{
			OFFSET 0.000000 30.012791 0.000000
		}
	}
}
MOTION
Frames: 4
Frame Time: 0.033333
-0.335259 74.682640 -1.332804 2.466814 -12.606488 1.603936 0.000000 -0.000001 -0.000000 -35.820524 0.912900 10.173719 56.331261 6.611772 -3.133176 -16.728045 0.845328 -5.042082 -0.000000 0.000000 0.000000 -0.000000 0.000000 0.000000 -0.000000 0.000000 0.000001 -32.368557 -3.550034 -11.046093 57.533368 -3.889452 0.243544 -22.431928 -1.249679 5.185570 0.000000 0.000002 0.000000 0.000000 0.000002 0.000000 0.000000 0.000002 0.000000 4.393730 0.326419 0.407003 8.612485 0.660247 -0.164664 8.611584 0.591114 -0.424468 -6.338456 1.721043 -2.596748 -10.752054 5.775518 -4.745670 0.000000 -0.000000 -0.000000 0.000000 -0.000000 -0.000000 0.000000 -0.000000 -0.000000 2.823816 -2.760081 -9.570520 -5.166167 3.453092 -68.734290 -0.000002 -56.494424 -0.000009 16.904503 -4.229830 14.918267 -1.540038 3.690172 6.142340 15.665881 35.226448 -12.269041 0.000002 -0.000002 0.000000 2.469326 5.285981 -50.054509 2.651910 5.433005 -52.008957 -0.000000 -0.000002 -0.000005 2.467836 5.284738 -50.038389 2.653429 5.434196 -52.025090 -0.000001 0.000001 0.000000 2.573716 5.371288 -51.178536 2.748282 5.506569 -53.020009 0.000001 -0.000000 -0.000000 5.781676 7.921883 -51.263175 2.784816 1.445356 -53.515577 -0.000001 -0.000000 -0.000000 -0.000000 -0.000001 0.000000 4.828215 10.656856 4.099363 -19.554762 -5.267192 53.705084 0.000021 129.271876 -0.000024 -49.097865 4.401306 19.302524 -1.849254 -3.581794 -6.586128 2.792898 -7.170139 13.636123 0.000001 -0.000000 0.000002 -1.059790 -0.047128 30.310576 0.262686 -1.896821 15.768537 0.000001 -0.000002 0.000001 5.973357 -6.879834 81.914889 7.590586 -6.918611 95.317653 0.000002 0.000003 -0.000003 5.973359 -6.879820 81.914903 7.590590 -6.918616 95.317653 0.000001 -0.000002 0.000004 3.325851 -7.659150 29.534172 0.262690 -1.896822 15.768550 0.000000 0.000001 0.000002 0.000001 0.000002 0.000000 -0.000000 0.000000 -0.000000 -0.000000 0.000000 -0.000000 -0.000000 0.000000 -0.000000 -0.000000 0.000000 -0.000000 -0.000000 0.000000 -0.000000 -0.000000 0.000000 -0.000001 -0.000000 0.000000 -0.000000 -0.000000 0.000000 -0.000000 -0.000000 0.000000 -0.000001 0.000001 0.000000 -0.000000 0.000001 0.000000 -0.000000 0.000000 -0.000001 -0.000000 
-0.148959 74.339165 -1.389476 2.007295 -12.665512 2.038450 -0.000000 0.000000 -0.000000 -35.850136 1.490237 10.146884 57.260864 5.996194 -3.723559 -17.248405 0.810110 -4.589781 0.000000 0.000000 0.000000 0.000000 0.000000 0.000000 -0.000001 -0.000001 -0.000002 -32.817642 -3.299418 -11.745577 58.930647 -3.708838 -0.065080 -22.851506 -1.322496 5.487164 -0.000000 -0.000001 0.000000 -0.000000 -0.000001 0.000000 0.000002 0.000002 -0.000001 4.735831 0.272544 0.611146 9.285874 0.563329 0.127900 9.293203 0.484762 -0.150978 -4.528807 3.107264 -3.581113 -9.754302 12.001621 -6.194605 0.000001 0.000000 -0.000000 0.000001 0.000000 -0.000000 0.000001 0.000000 -0.000000 2.849152 -2.821169 -9.588789 -7.813812 3.489489 -69.085902 0.000020 -56.699910 0.000044 18.452432 -2.250575 14.360556 -1.540041 3.690171 6.142346 15.338546 35.425104 -11.467030 0.000001 0.000000 0.000001 2.405713 5.232289 -49.360483 2.550874 5.352911 -50.933940 -0.000002 -0.000002 -0.000000 2.404240 5.231024 -49.344364 2.552362 5.354128 -50.950073 0.000003 0.000000 0.000000 2.592344 5.386153 -51.377113 2.634590 5.419511 -51.826072 -0.000000 0.000001 0.000002 5.805412 7.925117 -51.435351 2.674029 1.361718 -52.362815 0.000001 -0.000002 -0.000001 -0.000002 0.000001 -0.000000 5.033785 11.660951 5.845077 -23.681593 -4.985992 49.772572 -0.000006 121.624987 -0.000007 -41.484213 4.353575 17.524831 -1.849256 -3.581793 -6.586129 2.456997 -7.222424 12.392477 0.000000 -0.000001 -0.000000 -1.058042 -0.173549 31.209265 0.228913 -1.772916 14.713686 -0.000004 -0.000002 0.000005 6.054208 -6.890759 82.589295 7.466714 -6.928942 94.290044 0.000001 0.000000 -0.000000 6.054214 -6.890730 82.589302 7.466701 -6.928938 94.290051 -0.000002 -0.000001 0.000000 3.448128 -7.715543 30.448157 0.228911 -1.772914 14.713677 0.000003 -0.000002 0.000002 -0.000002 0.000000 -0.000000 -0.000000 0.000001 0.000000 -0.000000 0.000001 0.000000 -0.000000 0.000001 0.000000 -0.000000 0.000001 0.000000 -0.000000 0.000001 -0.000000 0.000001 0.000001 -0.000000 -0.000000 0.000001 0.000000 -0.000000 0.000001 -0.000000 0.000001 0.000001 -0.000000 0.000001 0.000000 -0.000000 0.000001 0.000000 -0.000000 -0.000000 0.000000 -0.000000 
-0.044742 73.923386 -1.096314 0.770314 -12.504359 2.343073 -0.000000 0.000001 -0.000000 -34.937562 2.184462 10.069300 58.467321 5.253398 -4.180245 -18.183109 0.820281 -4.264631 0.000000 0.000000 0.000000 0.000000 0.000000 0.000000 -0.000001 -0.000000 -0.000001 -32.031596 -3.117101 -12.461099 60.430645 -3.736982 -0.507668 -23.963389 -1.483339 5.976716 0.000000 -0.000002 0.000000 0.000000 -0.000002 0.000000 -0.000001 0.000002 0.000000 4.866693 0.184654 0.963036 9.562582 0.426896 0.592466 9.583157 0.347900 0.304873 1.147605 3.895011 -3.645377 -3.824528 17.566265 -8.260161 -0.000002 -0.000001 0.000000 -0.000002 -0.000001 0.000000 -0.000002 -0.000001 0.000000 2.810673 -2.674771 -9.941032 -9.918865 4.257632 -70.184708 -0.000011 -56.185075 -0.000000 20.936439 -0.567557 14.283553 -1.540044 3.690171 6.142342 14.853822 35.335909 -11.225609 -0.000002 -0.000003 -0.000004 2.548130 5.350716 -50.904751 2.159512 5.011335 -46.603115 -0.000003 -0.000003 -0.000004 2.546627 5.349492 -50.888618 2.160918 5.012660 -46.619217 -0.000001 -0.000002 -0.000002 2.714439 5.481056 -52.666605 2.338006 5.173625 -48.613923 0.000003 -0.000004 -0.000003 5.981163 7.946858 -52.708334 2.381109 1.122836 -49.224415 -0.000000 0.000004 0.000002 0.000002 0.000002 -0.000000 5.161287 12.378356 7.116729 -25.366600 -2.361197 46.646227 0.000045 110.919513 -0.000041 -33.073750 1.679317 14.068245 -1.849255 -3.581796 -6.586127 4.532795 -8.172367 11.558747 0.000000 0.000001 -0.000000 -1.046973 -0.456839 33.224523 0.178039 -1.566470 12.967449 -0.000002 0.000000 0.000005 6.235940 -6.911818 84.101690 7.261266 -6.941197 92.588549 0.000000 0.000001 -0.000000 6.235939 -6.911799 84.101690 7.261271 -6.941210 92.588542 0.000001 0.000000 0.000002 3.725541 -7.834865 32.498556 0.178035 -1.566464 12.967437 -0.000002 -0.000001 0.000002 -0.000001 -0.000002 -0.000000 -0.000000 0.000000 -0.000000 -0.000000 0.000000 -0.000000 -0.000000 0.000000 -0.000000 -0.000000 0.000000 -0.000000 -0.000000 0.000000 -0.000000 -0.000000 0.000001 0.000000 -0.000000 0.000000 -0.000000 -0.000000 0.000000 -0.000000 -0.000000 0.000001 0.000000 -0.000001 -0.000001 -0.000000 -0.000001 -0.000001 -0.000000 -0.000000 0.000001 -0.000000 
-0.064034 73.559807 -0.417588 -0.937677 -12.356060 2.423019 0.000000 -0.000000 0.000000 -33.126476 2.851187 10.035329 59.613065 4.609011 -4.398550 -19.390040 0.873574 -4.183720 -0.000000 -0.000000 -0.000000 -0.000000 -0.000000 -0.000000 0.000001 0.000000 -0.000000 -30.137301 -3.112407 -13.032377 61.595541 -3.797762 -0.942944 -25.403261 -1.684881 6.465247 0.000000 0.000000 -0.000000 0.000000 0.000000 -0.000000 -0.000002 -0.000000 0.000000 4.812987 0.037630 1.291433 9.492819 0.200494 1.009534 9.524554 0.127643 0.722356 8.148356 4.102379 -2.519248 7.512041 21.306247 -9.796707 -0.000000 0.000002 -0.000001 -0.000000 0.000002 -0.000001 -0.000000 0.000002 -0.000001 2.729883 -2.394626 -10.447224 -10.310077 5.368441 -71.107747 0.000021 -56.485220 0.000017 23.081941 1.141659 14.850552 -1.540042 3.690174 6.142340 15.080288 34.533286 -12.901543 0.000003 -0.000003 -0.000002 2.842610 5.576025 -53.996894 1.841801 4.691723 -42.848034 -0.000005 0.000000 -0.000002 2.841048 5.574894 -53.980751 1.843125 4.693113 -42.864136 -0.000001 0.000003 0.000001 2.920465 5.631479 -54.794202 2.067418 4.922977 -45.539976 0.000000 0.000001 0.000002 6.273914 7.974377 -54.821967 2.114142 0.880154 -46.229900 -0.000002 0.000000 -0.000002 0.000002 0.000003 -0.000000 5.148038 12.573987 8.035204 -26.088997 2.161919 44.621657 -0.000334 95.113506 0.000372 -28.269624 1.951862 14.699904 -1.849253 -3.581796 -6.586125 10.171060 -10.527267 11.531571 0.000000 -0.000001 0.000001 -1.009068 -0.903974 36.415089 0.092967 -1.135589 9.361012 -0.000001 -0.000001 0.000005 6.524621 -6.935371 86.496047 6.836114 -6.947329 89.073303 0.000000 0.000001 -0.000000 6.524626 -6.935343 86.496047 6.836103 -6.947327 89.073310 0.000001 0.000000 0.000000 4.173171 -8.003439 35.746632 0.092974 -1.135585 9.361005 0.000001 0.000000 0.000002 -0.000001 0.000000 -0.000000 -0.000000 -0.000001 0.000000 -0.000000 -0.000001 0.000000 -0.000000 -0.000001 0.000000 -0.000000 -0.000001 0.000000 -0.000000 -0.000001 0.000000 -0.000002 -0.000000 -0.000000 -0.000000 -0.000001 0.000000 -0.000000 -0.000001 0.000000 -0.000002 -0.000000 -0.000000 0.000000 -0.000001 -0.000000 0.000000 -0.000001 -0.000000 0.000000 -0.000000 0.000000 
